<svg width="194" height="36" viewBox="0 0 194 36" fill="none" xmlns="http://www.w3.org/2000/svg">
<path d="M172.963 14.0137C174.647 10.795 178.063 8.86377 183.213 8.86377C191.334 8.86377 193.81 13.2214 193.81 19.0646V31.89C193.81 33.6231 193.414 34.1183 192.028 34.7125C190.196 35.5048 187.175 36 183.114 36C174.35 36 172.072 33.1279 172.072 27.978C172.072 22.0358 175.389 20.0055 183.312 20.0055C185.244 20.0055 187.224 20.2036 188.066 20.2531V18.8666C188.066 15.7469 186.828 13.9642 183.114 13.9642C180.638 13.9642 178.955 14.7565 177.915 16.3411C177.222 17.381 176.924 17.5295 175.786 17.0839L173.805 16.2421C172.715 15.7469 172.369 15.1526 172.963 14.0137ZM188.066 24.9574C187.026 24.9078 184.6 24.7098 182.669 24.7098C178.905 24.7098 177.915 25.8982 177.915 27.9285C177.915 29.9587 178.707 31.2462 182.57 31.2462C185.095 31.2462 186.63 31.0482 187.521 30.8501C187.918 30.7015 188.066 30.6025 188.066 30.1568V24.9574Z" fill="#141414"/>
<path d="M164.968 0C167.246 0 167.989 0.693262 167.989 2.97112V3.41679C167.989 5.69466 167.246 6.43744 164.968 6.43744H164.621C162.343 6.43744 161.601 5.69466 161.601 3.41679V2.97112C161.601 0.693262 162.343 0 164.621 0H164.968ZM166.156 9.60664C167.295 9.60664 167.692 9.95327 167.692 11.0922V33.7223C167.692 34.8612 167.295 35.2573 166.156 35.2573H163.433C162.294 35.2573 161.947 34.8612 161.947 33.7223V11.0922C161.947 9.95327 162.294 9.60664 163.433 9.60664H166.156Z" fill="#141414"/>
<path d="M155.581 8.86377H157.166C158.305 8.86377 158.701 9.2104 158.701 10.3989V12.5777C158.701 13.7166 158.305 14.1128 157.166 14.1128H155.383C153.452 14.1128 151.967 14.3108 150.679 14.707C150.233 14.806 150.184 15.0536 150.184 15.3012V33.7222C150.184 34.8611 149.837 35.2573 148.698 35.2573H145.975C144.836 35.2573 144.44 34.8611 144.44 33.7222V13.1719C144.44 11.5873 144.786 10.9931 146.371 10.3493C148.203 9.65607 151.174 8.96281 155.581 8.86377Z" fill="#141414"/>
<path d="M117.05 19.5598C117.05 12.6767 121.061 8.86377 128.539 8.86377C136.412 8.86377 139.977 13.4195 139.977 19.1141V22.1348C139.977 23.4223 139.482 24.2641 137.749 24.2641H122.794V26.0963C122.794 29.315 124.825 31.0482 128.439 31.0482C131.361 31.0482 133.243 30.0578 134.283 28.4237C135.075 27.3343 135.62 27.1857 136.808 27.8294L138.541 28.7703C139.68 29.315 139.829 30.1568 139.136 31.2462C137.353 34.1678 134.035 36 128.439 36C120.318 36 117.05 31.4938 117.05 25.403V19.5598ZM134.233 18.7675C134.233 15.5488 132.302 13.7166 128.539 13.7166C124.825 13.7166 122.794 15.5488 122.794 18.7675V19.8569H134.233V18.7675Z" fill="#141414"/>
<path d="M113.735 9.60645C115.221 9.60645 115.567 9.95308 115.023 11.3396L105.862 33.9201C105.416 35.0096 104.921 35.3067 103.782 35.3067H102.148C101.009 35.3067 100.464 35.0096 100.068 33.9201L90.9565 11.3891C90.4118 9.95308 90.7089 9.60645 92.1945 9.60645H94.1257C95.9579 9.60645 96.4531 9.90356 96.8493 11.1415L101.454 23.026C102.346 25.3534 102.791 28.1265 102.841 28.3245H103.089C103.188 28.1265 103.584 25.4524 104.426 23.0755L108.981 11.1415C109.477 9.90356 109.873 9.60645 111.754 9.60645H113.735Z" fill="#141414"/>
<path d="M84.6455 0C86.9233 0 87.6661 0.693262 87.6661 2.97112V3.41679C87.6661 5.69466 86.9233 6.43744 84.6455 6.43744H84.2988C82.021 6.43744 81.2782 5.69466 81.2782 3.41679V2.97112C81.2782 0.693262 82.021 0 84.2988 0H84.6455ZM85.8339 9.60664C86.9729 9.60664 87.369 9.95327 87.369 11.0922V33.7223C87.369 34.8612 86.9729 35.2573 85.8339 35.2573H83.1104C81.9715 35.2573 81.6248 34.8612 81.6248 33.7223V11.0922C81.6248 9.95327 81.9715 9.60664 83.1104 9.60664H85.8339Z" fill="#141414"/>
<path d="M62.0149 0.0991211C71.2254 0.0991211 76.3754 5.10051 76.3754 13.1721V22.1845C76.3754 30.256 71.2254 35.2574 62.0149 35.2574H50.9227C49.6352 35.2574 49.1896 34.8118 49.1896 33.5738V1.78276C49.1896 0.54479 49.6352 0.0991211 50.9227 0.0991211H62.0149ZM70.1855 13.1226C70.1855 8.41827 67.2639 5.89281 62.0644 5.89281H55.4289V29.4637H62.0644C67.2639 29.4637 70.1855 26.9383 70.1855 22.234V13.1226Z" fill="#141414"/>
<path fill-rule="evenodd" clip-rule="evenodd" d="M11.1842 5.42166C10.0127 6.59323 10.0127 8.49273 11.1842 9.6643L17.3412 15.8213L23.4982 9.6643C24.6698 8.49273 24.6698 6.59323 23.4982 5.42166L19.4625 1.386C18.291 0.21443 16.3915 0.214432 15.2199 1.386L11.1842 5.42166ZM0.87868 19.9699C-0.292892 18.7983 -0.292894 16.8988 0.878679 15.7272L4.91434 11.6916C6.08591 10.52 7.9854 10.52 9.15698 11.6916L15.314 17.8485L9.15698 24.0055C7.98541 25.1771 6.08591 25.1771 4.91434 24.0055L0.87868 19.9699ZM25.5254 11.6916L19.3685 17.8485L25.5254 24.0055C26.697 25.1771 28.5965 25.1771 29.7681 24.0055L33.8037 19.9699C34.9753 18.7983 34.9753 16.8988 33.8037 15.7272L29.7681 11.6916C28.5965 10.52 26.697 10.52 25.5254 11.6916ZM11.1842 26.0322C10.0127 27.2038 10.0127 29.1033 11.1842 30.2748L15.2199 34.3105C16.3915 35.4821 18.291 35.4821 19.4625 34.3105L23.4982 30.2748C24.6698 29.1033 24.6698 27.2038 23.4982 26.0322L17.3412 19.8752L11.1842 26.0322Z" fill="url(#paint0_linear_588_1642)"/>
<defs>
<linearGradient id="paint0_linear_588_1642" x1="-0.170471" y1="17.8981" x2="34.9527" y2="17.8981" gradientUnits="userSpaceOnUse">
<stop stop-color="#438DF9"/>
<stop offset="1" stop-color="#216AD9"/>
</linearGradient>
</defs>
</svg>
